<svg width="226" height="237" viewBox="0 0 226 237" fill="none" xmlns="http://www.w3.org/2000/svg">
<path d="M214.096 208.778L143.769 119.903C143.445 119.494 143.037 119.157 142.574 118.916C142.11 118.674 141.601 118.534 141.079 118.504C140.558 118.474 140.035 118.555 139.547 118.741C139.059 118.927 138.616 119.215 138.246 119.585L92.7485 165.108L69.4554 141.804C68.7397 141.11 67.7831 140.721 66.7867 140.719C65.7873 140.734 64.836 141.152 64.1475 141.878L1.22321 208.534C0.727998 209.061 0.397471 209.72 0.272319 210.432C0.147168 211.144 0.232854 211.878 0.518832 212.541C0.804809 213.205 1.27859 213.771 1.88186 214.169C2.48513 214.567 3.19155 214.78 3.91415 214.781H211.194C211.89 214.781 212.572 214.585 213.161 214.215C213.751 213.846 214.224 213.317 214.527 212.69C214.83 212.064 214.95 211.364 214.874 210.672C214.798 209.981 214.528 209.324 214.096 208.778Z" fill="#1F662E" fill-opacity="0.5"/>
<path d="M74.2043 159.234H86.878L69.4554 141.804C68.7397 141.11 67.7831 140.721 66.7867 140.719C65.7873 140.734 64.836 141.152 64.1475 141.878L40.773 166.641H66.8755C67.8474 166.641 68.7794 166.254 69.4666 165.567C70.1538 164.879 70.5399 163.947 70.5399 162.975V162.9C70.5399 161.928 70.926 160.996 71.6132 160.308C72.3004 159.621 73.2325 159.234 74.2043 159.234ZM144.532 140.719H160.24L143.769 119.903C143.445 119.494 143.037 119.157 142.574 118.916C142.11 118.674 141.601 118.534 141.079 118.504C140.558 118.474 140.035 118.555 139.547 118.741C139.059 118.927 138.616 119.215 138.246 119.585L109.723 148.125H137.203C138.175 148.125 139.107 147.739 139.794 147.051C140.481 146.364 140.867 145.431 140.867 144.459V144.385C140.867 143.413 141.253 142.48 141.94 141.793C142.628 141.105 143.56 140.719 144.532 140.719Z" fill="#E6E6E6" fill-opacity="0.5"/>
<path d="M188.986 81.4688H177.881C176.9 81.4688 175.958 81.0786 175.264 80.3841C174.57 79.6897 174.18 78.7478 174.18 77.7656C174.18 76.7835 174.57 75.8416 175.264 75.1471C175.958 74.4526 176.9 74.0625 177.881 74.0625H185.284V70.3594C185.284 69.3772 185.674 68.4353 186.368 67.7409C187.063 67.0464 188.004 66.6562 188.986 66.6562H200.09C201.072 66.6562 202.013 67.0464 202.707 67.7409C203.401 68.4353 203.791 69.3772 203.791 70.3594C203.791 71.3415 203.401 72.2834 202.707 72.9779C202.013 73.6724 201.072 74.0625 200.09 74.0625H192.687V77.7656C192.687 78.7478 192.297 79.6897 191.603 80.3841C190.909 81.0786 189.967 81.4688 188.986 81.4688ZM40.9285 118.5H29.8242C28.8425 118.5 27.901 118.11 27.2069 117.415C26.5127 116.721 26.1227 115.779 26.1227 114.797V111.094H18.7199C17.7382 111.094 16.7967 110.704 16.1026 110.009C15.4084 109.315 15.0184 108.373 15.0184 107.391C15.0184 106.408 15.4084 105.467 16.1026 104.772C16.7967 104.078 17.7382 103.688 18.7199 103.688H29.8242C30.8059 103.688 31.7473 104.078 32.4415 104.772C33.1356 105.467 33.5256 106.408 33.5256 107.391V111.094H40.9285C41.9101 111.094 42.8516 111.484 43.5458 112.178C44.2399 112.873 44.6299 113.815 44.6299 114.797C44.6299 115.779 44.2399 116.721 43.5458 117.415C42.8516 118.11 41.9101 118.5 40.9285 118.5ZM196.389 122.203H185.284C184.303 122.203 183.361 121.813 182.667 121.119C181.973 120.424 181.583 119.482 181.583 118.5V114.797H174.18C173.198 114.797 172.257 114.407 171.563 113.712C170.868 113.018 170.479 112.076 170.479 111.094C170.479 110.112 170.868 109.17 171.563 108.475C172.257 107.781 173.198 107.391 174.18 107.391H185.284C186.266 107.391 187.207 107.781 187.902 108.475C188.596 109.17 188.986 110.112 188.986 111.094V114.797H196.389C197.37 114.797 198.312 115.187 199.006 115.881C199.7 116.576 200.09 117.518 200.09 118.5C200.09 119.482 199.7 120.424 199.006 121.119C198.312 121.813 197.37 122.203 196.389 122.203Z" fill="#3EBBDD" fill-opacity="0.5"/>
<path d="M92.7485 22.2188C78.461 22.2188 66.8385 33.8466 66.8385 48.1406C66.8385 62.4347 78.461 74.0625 92.7485 74.0625C107.036 74.0625 118.659 62.4347 118.659 48.1406C118.659 33.8466 107.036 22.2188 92.7485 22.2188Z" fill="#FBB03B" fill-opacity="0.5"/>
<path d="M89.0471 140.719H96.4499V148.125H89.0471V140.719ZM89.0471 125.906H96.4499V133.312H89.0471V125.906ZM89.0471 111.094H96.4499V118.5H89.0471V111.094ZM106.814 97.7625L95.7096 82.95C94.3142 81.0836 91.1828 81.0836 89.7874 82.95L78.6831 97.7625C78.2692 98.3123 78.0168 98.9667 77.9543 99.6522C77.8919 100.338 78.0218 101.027 78.3294 101.643C78.6371 102.258 79.1103 102.776 79.6959 103.137C80.2815 103.498 80.9562 103.689 81.6442 103.688H103.853C104.54 103.686 105.213 103.494 105.796 103.132C106.38 102.77 106.852 102.253 107.159 101.638C107.467 101.024 107.597 100.336 107.536 99.6515C107.475 98.967 107.225 98.313 106.814 97.7625ZM129.763 96.2812H137.166V103.688H129.763V96.2812ZM159.374 37.0312H166.777V44.4375H159.374V37.0312ZM18.7199 140.719H26.1227V148.125H18.7199V140.719ZM40.9285 66.6562H48.3313V74.0625H40.9285V66.6562Z" fill="#E6E6E6" fill-opacity="0.5"/>
<path d="M179.162 164.634C151.231 188.689 112.074 203.672 68.6892 203.672C50.0618 203.703 31.5412 200.856 13.7822 195.232L1.22321 208.534C0.727999 209.061 0.397471 209.72 0.272319 210.432C0.147168 211.144 0.232854 211.878 0.518832 212.541C0.804809 213.205 1.27859 213.771 1.88186 214.169C2.48513 214.567 3.19155 214.78 3.91415 214.781H211.194C211.889 214.781 212.57 214.585 213.159 214.215C213.748 213.845 214.221 213.317 214.524 212.691C214.827 212.065 214.947 211.367 214.872 210.675C214.796 209.984 214.527 209.328 214.096 208.782L179.162 164.634Z" fill="#0E600D" fill-opacity="0.5"/>
</svg>
